<?xml version="1.0" standalone="no"?>
<!DOCTYPE svg PUBLIC "-//W3C//DTD SVG 20010904//EN"
 "http://www.w3.org/TR/2001/REC-SVG-20010904/DTD/svg10.dtd">
<svg version="1.0" xmlns="http://www.w3.org/2000/svg"
 width="448.000000pt" height="448.000000pt" viewBox="0 0 448.000000 448.000000"
 preserveAspectRatio="xMidYMid meet">
<metadata>
Created by potrace 1.11, written by Peter Selinger 2001-2013
</metadata>
<g transform="translate(0.000000,448.000000) scale(0.100000,-0.100000)"
fill="#000000" stroke="none">
<path d="M2513 3672 c2 -11 -32 -14 -195 -15 -125 -1 -198 -6 -197 -12 0 -5
-10 -12 -23 -15 -13 -3 -30 -20 -40 -40 -10 -19 -20 -34 -23 -32 -16 7 -34 0
-29 -12 3 -8 12 -12 20 -9 18 7 18 4 -10 -64 -30 -75 -46 -125 -46 -147 0 -9
-6 -27 -14 -39 -8 -12 -23 -49 -34 -82 -12 -33 -38 -109 -60 -170 -101 -280
-136 -371 -148 -386 -8 -8 -14 -26 -14 -40 0 -13 -5 -31 -10 -39 -8 -12 -10
-9 -10 13 0 16 -4 26 -9 23 -5 -3 -7 -22 -4 -41 3 -23 1 -35 -7 -35 -7 0 -10
-6 -7 -14 3 -8 -1 -13 -10 -12 -9 0 -17 -7 -18 -16 -2 -10 3 -18 11 -18 11 0
13 -7 8 -27 -10 -44 -28 -78 -41 -78 -6 0 -15 -3 -19 -7 -4 -5 -3 -8 3 -8 13
0 1 -72 -20 -121 -8 -19 -21 -53 -27 -76 -12 -40 -43 -63 -56 -41 -10 16 -25
-7 -18 -26 5 -14 9 -15 15 -5 4 8 11 10 15 7 6 -7 -13 -101 -27 -128 -4 -8
-14 -37 -21 -64 -7 -27 -19 -51 -25 -53 -7 -3 -13 -16 -13 -29 0 -13 -4 -32
-9 -42 -5 -9 -21 -53 -35 -97 -15 -44 -32 -84 -39 -90 -7 -5 -12 -19 -12 -30
0 -11 -8 -21 -18 -23 -10 -2 -17 0 -16 5 3 20 -2 31 -19 35 -12 3 -18 -1 -18
-12 0 -10 6 -16 13 -13 15 6 18 -23 3 -32 -10 -6 -9 -40 2 -51 4 -3 5 2 4 13
-4 21 11 43 29 43 12 0 -20 -105 -64 -215 -7 -16 -12 -31 -12 -32 0 -2 -6 -21
-14 -43 -8 -22 -12 -40 -8 -40 3 0 1 -6 -4 -13 -6 -6 -16 -36 -24 -64 -7 -29
-16 -53 -20 -53 -3 0 -16 -30 -28 -68 -24 -71 -45 -125 -62 -156 -7 -13 -7
-22 0 -29 16 -16 452 -13 494 4 67 27 113 76 159 169 23 49 46 90 50 90 4 0 6
-13 4 -30 -4 -37 -1 -38 17 -2 9 18 11 36 6 50 -11 30 0 84 17 78 7 -3 15 2
18 11 4 11 2 14 -9 9 -19 -7 -19 -2 5 62 11 30 20 59 18 65 -1 7 6 30 16 52
10 22 25 58 33 80 8 22 33 84 54 137 22 53 39 105 39 115 0 10 15 54 33 98 19
44 51 132 72 195 22 63 46 123 54 133 8 9 12 20 9 23 -6 5 10 48 69 189 17 39
30 73 31 78 6 54 31 92 33 50 0 -13 4 -10 12 8 7 14 18 33 25 42 11 13 10 17
-4 25 -17 9 -17 12 -2 48 9 22 19 47 22 57 3 9 12 17 20 17 14 0 16 16 4 35
-8 13 20 75 34 75 5 0 6 5 2 11 -3 6 -2 21 4 32 6 12 13 35 17 50 3 15 15 32
28 37 38 16 57 36 57 61 -1 24 -1 24 -16 -3 -22 -41 -38 -36 -29 10 7 42 50
175 67 210 13 26 30 30 21 5 -3 -12 1 -10 12 5 12 16 15 33 11 56 -4 21 -1 44
8 61 9 16 21 51 27 77 7 26 16 48 20 48 7 0 21 42 24 72 1 10 7 23 13 30 5 7
13 29 17 50 6 31 4 38 -14 47 -12 7 -21 19 -21 27 0 9 5 12 12 8 7 -4 8 -3 4
5 -4 6 -12 9 -17 6 -5 -4 -9 -2 -9 2 0 5 -27 9 -60 9 -46 0 -59 -3 -57 -14z"/>
<path d="M85 3660 c3 -5 10 -10 16 -10 5 0 9 5 9 10 0 6 -7 10 -16 10 -8 0
-12 -4 -9 -10z"/>
<path d="M2042 3650 c-15 -24 -16 -40 -1 -40 5 0 7 5 4 10 -3 6 -2 10 2 10 5
0 9 9 10 20 2 25 1 25 -15 0z"/>
<path d="M2670 3660 c0 -5 5 -10 10 -10 6 0 10 5 10 10 0 6 -4 10 -10 10 -5 0
-10 -4 -10 -10z"/>
<path d="M178 3653 c7 -3 16 -2 19 1 4 3 -2 6 -13 5 -11 0 -14 -3 -6 -6z"/>
<path d="M101 3622 c-13 -9 -9 -55 9 -92 19 -39 34 -100 36 -150 3 -88 2 -84
19 -70 19 16 17 19 45 -60 13 -36 28 -71 33 -77 15 -20 593 -18 600 1 6 16
-18 105 -33 120 -6 6 -10 20 -10 32 0 13 -4 26 -10 29 -5 3 -10 14 -10 24 0 9
-11 41 -25 69 -14 29 -25 61 -25 72 0 11 -7 23 -15 26 -8 4 -15 14 -15 24 0
17 -25 35 -44 31 -4 -1 -15 4 -24 11 -18 16 -508 24 -531 10z"/>
<path d="M2957 3613 c-27 -8 -51 -21 -54 -29 -3 -8 -9 -14 -14 -14 -21 0 -109
-108 -109 -134 0 -8 -8 -30 -18 -48 -11 -18 -24 -51 -31 -73 -14 -45 -47 -135
-66 -180 -7 -16 -29 -79 -50 -140 -68 -198 -103 -297 -109 -303 -3 -3 -6 -16
-6 -29 0 -13 -3 -23 -8 -23 -9 0 -42 -90 -42 -114 0 -9 -4 -16 -9 -16 -5 0
-13 -15 -16 -32 -4 -18 -11 -38 -16 -44 -5 -6 -10 -19 -12 -30 -1 -10 -5 -23
-9 -29 -3 -5 -9 -26 -13 -45 -4 -19 -11 -41 -15 -50 -7 -14 -26 -57 -48 -110
-6 -14 -25 -68 -43 -120 -17 -52 -40 -111 -50 -130 -11 -19 -19 -40 -19 -47 0
-12 -56 -166 -71 -195 -5 -10 -9 -26 -9 -36 0 -10 -9 -36 -20 -57 -11 -22 -41
-98 -65 -170 -64 -187 -69 -199 -83 -208 -7 -5 -10 -12 -7 -17 3 -5 -3 -31
-13 -57 -10 -26 -24 -64 -31 -83 -7 -19 -23 -64 -37 -100 -13 -36 -24 -75 -24
-87 0 -14 -6 -23 -16 -23 -9 0 -14 -7 -12 -18 3 -16 26 -17 306 -17 l303 0 23
65 c13 36 29 79 35 95 104 286 161 451 161 466 0 10 4 20 9 24 5 3 17 29 26
58 9 28 23 67 31 84 24 52 44 113 37 113 -3 0 -1 6 5 13 5 6 13 28 17 47 4 19
13 42 20 50 11 13 48 112 92 250 17 50 51 144 63 175 5 11 25 67 45 125 34 97
69 191 100 265 16 39 29 77 51 150 10 33 22 64 26 69 4 6 8 18 8 27 0 10 7 30
15 46 18 35 77 198 101 278 10 33 24 66 31 73 7 7 13 20 13 29 0 8 23 77 50
152 28 75 50 142 50 148 0 20 -34 24 -229 22 -136 -1 -211 -6 -244 -16z"/>
<path d="M50 3570 c0 -5 5 -10 10 -10 6 0 10 5 10 10 0 6 -4 10 -10 10 -5 0
-10 -4 -10 -10z"/>
<path d="M750 3526 c0 -8 5 -18 10 -21 6 -3 10 1 10 9 0 8 -4 18 -10 21 -5 3
-10 -1 -10 -9z"/>
<path d="M2600 3310 c0 -5 5 -10 11 -10 5 0 7 5 4 10 -3 6 -8 10 -11 10 -2 0
-4 -4 -4 -10z"/>
<path d="M180 3241 c0 -6 4 -13 10 -16 6 -3 7 1 4 9 -7 18 -14 21 -14 7z"/>
<path d="M135 3230 c-3 -5 -2 -18 4 -27 7 -14 9 -12 8 10 -2 30 -3 31 -12 17z"/>
<path d="M865 3230 c3 -5 10 -10 16 -10 5 0 9 5 9 10 0 6 -7 10 -16 10 -8 0
-12 -4 -9 -10z"/>
<path d="M190 3201 c0 -6 5 -13 10 -16 6 -3 10 1 10 9 0 9 -4 16 -10 16 -5 0
-10 -4 -10 -9z"/>
<path d="M2587 3203 c-7 -11 10 -40 18 -31 4 4 3 14 -3 24 -5 9 -12 12 -15 7z"/>
<path d="M1727 2909 c-4 -16 -3 -18 9 -8 7 6 11 15 8 20 -8 13 -11 11 -17 -12z"/>
<path d="M2416 2794 c-8 -20 -3 -27 18 -22 12 2 13 6 2 21 -13 16 -14 16 -20
1z"/>
<path d="M2435 2630 c-3 -5 -1 -10 4 -10 6 0 11 5 11 10 0 6 -2 10 -4 10 -3 0
-8 -4 -11 -10z"/>
<path d="M1617 2595 c-4 -8 -1 -17 6 -21 7 -4 9 -4 5 1 -4 4 -3 14 3 22 7 8 8
13 1 13 -5 0 -12 -7 -15 -15z"/>
<path d="M2321 2503 c0 -4 4 -17 9 -28 8 -19 9 -19 9 2 1 12 -3 25 -9 28 -5 3
-10 3 -9 -2z"/>
<path d="M2387 2493 c-4 -3 -7 -11 -7 -17 0 -6 5 -5 12 2 6 6 9 14 7 17 -3 3
-9 2 -12 -2z"/>
<path d="M2363 2455 c0 -8 4 -12 9 -9 5 3 6 10 3 15 -9 13 -12 11 -12 -6z"/>
<path d="M1601 2434 c0 -11 3 -14 6 -6 3 7 2 16 -1 19 -3 4 -6 -2 -5 -13z"/>
<path d="M2341 2334 c0 -11 3 -14 6 -6 3 7 2 16 -1 19 -3 4 -6 -2 -5 -13z"/>
<path d="M2866 1972 c-2 -4 -1 -14 5 -22 7 -12 9 -10 9 8 0 23 -5 28 -14 14z"/>
<path d="M2126 1895 c-3 -9 -2 -24 3 -33 9 -16 10 -16 16 0 4 9 2 24 -3 33 -8
16 -9 16 -16 0z"/>
<path d="M2076 1873 c-11 -11 -6 -23 9 -23 8 0 15 4 15 9 0 13 -16 22 -24 14z"/>
<path d="M1359 1788 c0 -2 -2 -10 -4 -18 -2 -8 -6 -22 -9 -31 -4 -9 -2 -16 6
-16 8 0 13 13 13 34 1 27 -2 42 -6 31z"/>
<path d="M1946 1515 c-3 -8 -1 -15 4 -15 6 0 10 7 10 15 0 8 -2 15 -4 15 -2 0
-6 -7 -10 -15z"/>
<path d="M1233 1430 c1 -11 5 -20 9 -20 4 0 8 9 8 20 0 11 -4 20 -9 20 -6 0
-9 -9 -8 -20z"/>
<path d="M1930 1335 c0 -8 4 -15 10 -15 5 0 7 7 4 15 -4 8 -8 15 -10 15 -2 0
-4 -7 -4 -15z"/>
<path d="M3765 1300 c-3 -5 -1 -10 4 -10 6 0 11 5 11 10 0 6 -2 10 -4 10 -3 0
-8 -4 -11 -10z"/>
<path d="M3737 1262 c-60 -5 -60 -11 13 -197 17 -44 36 -95 41 -112 6 -18 14
-33 19 -33 6 0 10 -8 10 -19 0 -10 11 -30 25 -45 48 -52 74 -56 332 -56 131 0
248 3 261 6 20 6 21 9 9 23 -19 23 -106 257 -148 399 -7 23 -16 32 -32 32
-126 3 -501 4 -530 2z"/>
<path d="M2591 1204 c0 -11 3 -14 6 -6 3 7 2 16 -1 19 -3 4 -6 -2 -5 -13z"/>
<path d="M1075 990 c-3 -5 -1 -10 4 -10 6 0 11 5 11 10 0 6 -2 10 -4 10 -3 0
-8 -4 -11 -10z"/>
<path d="M1061 904 c0 -11 3 -14 6 -6 3 7 2 16 -1 19 -3 4 -6 -2 -5 -13z"/>
<path d="M4446 905 c-3 -9 0 -15 9 -15 16 0 20 16 6 24 -5 3 -11 -1 -15 -9z"/>
</g>
</svg>
